<?xml version="1.0" ?><!-- Uploaded to: SVG Repo, www.svgrepo.com, Generator: SVG Repo Mixer Tools -->
<svg width="800px" height="800px" viewBox="0 0 24 24" data-name="016_FOOD" id="_016_FOOD" xmlns="http://www.w3.org/2000/svg"><defs><style>.cls-1{fill:#333;}</style></defs><circle class="cls-1" cx="11.91" cy="15.66" r="1"/><path class="cls-1" d="M22,21h-.49A1,1,0,0,1,21,19.15,18.16,18.16,0,0,0,14.86,6.46L5.06,19H17.51a1,1,0,1,1,0,2H3a1,1,0,0,1-.78-1.62l11.68-15A1.06,1.06,0,0,1,14.58,4a1,1,0,0,1,.74.21A20.14,20.14,0,0,1,23,20,1,1,0,0,1,22,21Z"/><path class="cls-1" d="M17.82,21a1,1,0,0,1-1-1A13.87,13.87,0,0,0,11.51,9.12a1,1,0,0,1-.17-1.41,1,1,0,0,1,1.4-.17A15.91,15.91,0,0,1,18.82,20,1,1,0,0,1,17.82,21Z"/><path class="cls-1" d="M10,7H7A1,1,0,0,1,7,5h3a1,1,0,0,1,0,2Z"/><path class="cls-1" d="M7,11H4A1,1,0,0,1,4,9H7a1,1,0,0,1,0,2Z"/><path class="cls-1" d="M4,15H1a1,1,0,0,1,0-2H4a1,1,0,0,1,0,2Z"/></svg>