<svg xmlns="http://www.w3.org/2000/svg" version="1.1" xmlns:xlink="http://www.w3.org/1999/xlink" xmlns:svgjs="http://svgjs.dev/svgjs" width="1500" height="1500" viewBox="0 0 1500 1500"><g transform="matrix(1,0,0,1,0,-0.000334955314428953)"><svg viewBox="0 0 280 280" data-background-color="#ffffff" preserveAspectRatio="xMidYMid meet" height="1500" width="1500" xmlns="http://www.w3.org/2000/svg" xmlns:xlink="http://www.w3.org/1999/xlink"><g id="tight-bounds" transform="matrix(1,0,0,1,0,0.00006252499201764294)"><svg viewBox="0 0 280 280" height="280" width="280"><g><svg viewBox="0 0 280 280" height="280" width="280"><g><svg viewBox="0 0 280 280" height="280" width="280"><g id="textblocktransform"><svg viewBox="0 0 280 280" height="280" width="280" id="textblock"><g><svg viewBox="0 0 280 280" height="280" width="280"><g transform="matrix(1,0,0,1,57.50420886156945,57.50420886156945)"><svg viewBox="0 0 164.9915822768611 164.9915822768611" height="164.9915822768611" width="164.9915822768611"><g id="icon-0"><circle r="82" cx="82.49579113843055" cy="82.49579113843055" fill="#f98d67" data-fill-palette-color="accent"></circle><svg xmlns="http://www.w3.org/2000/svg" xmlns:xlink="http://www.w3.org/1999/xlink" version="1.1" x="24.748737341529164" y="24.74873734152917" viewBox="4.000383918363299 13.036999999999995 92.11994941497002 74.96300000000001" enable-background="new 0 0 100 100" xml:space="preserve" height="115.49410759380275" width="115.49410759380275" class="icon-xg-0" data-fill-palette-color="quaternary" id="xg-0"><g fill="#ffffff" data-fill-palette-color="quaternary"><path fill="#ffffff" d="M4.541 44.063c-1.097 2.86-0.185 5.37-0.185 5.37 1.14 2.965 2.499 3.449 5.354 3.449 0.958 0 1.853-0.205 2.622-0.553V88H50.11V66.366h23.608V88h14.169V52.329c0.772 0.349 1.665 0.553 2.625 0.553 2.853 0 4.73-2.364 5.167-3.954 0 0 0.993-2.994 0-4.865-1.687-3.177-14.424-31.026-14.424-31.026H18.964M14.903 48.926V48.47h-0.024v-4.407l9.767-24.945h7.801L24.76 44.063v4.865 0.002c-0.002 2.181-2.208 3.95-4.929 3.95C17.11 52.88 14.903 51.111 14.903 48.926zM33.568 74.542H20.792V61.767h12.775V74.542zM44.954 44.063v4.407 0.456c0 2.184-2.207 3.954-4.927 3.954-2.724 0-4.93-1.769-4.93-3.954V48.47v-4.407l4.083-24.945h7.778L44.954 44.063zM60.22 52.88c-2.721 0-4.927-1.769-4.927-3.954V48.47v-4.407l-2.006-24.945h7.754l4.081 24.945v4.865c0 0.065 0.011 0.132 0.015 0.196C65.006 51.215 62.857 52.88 60.22 52.88zM85.342 48.47h-0.025v0.456c0 2.184-2.206 3.954-4.929 3.954-2.721 0-4.927-1.769-4.927-3.954V48.47v-4.407l-7.688-24.945h7.802l9.768 24.945V48.47z" data-fill-palette-color="quaternary"></path></g></svg></g></svg></g><g id="text-0"><path d="M24.922 94.082v0c-0.498-0.166-0.997-0.211-1.498-0.134-0.507 0.075-1.044 0.381-1.612 0.918-0.576 0.541-1.223 1.432-1.94 2.674v0c-0.816 1.388-1.646 2.546-2.488 3.473-0.842 0.927-1.734 1.563-2.677 1.91-0.941 0.34-1.967 0.324-3.08-0.048v0c-1.067-0.357-1.942-0.99-2.622-1.901-0.687-0.913-1.115-2.023-1.282-3.33-0.161-1.305 0.011-2.711 0.514-4.219v0c0.54-1.617 1.285-2.908 2.233-3.871 0.954-0.961 2.008-1.587 3.162-1.877 1.154-0.29 2.31-0.242 3.468 0.145v0l-1.164 3.484c-0.835-0.279-1.746-0.177-2.734 0.305-0.993 0.474-1.716 1.39-2.17 2.748v0c-0.316 0.944-0.426 1.76-0.332 2.446 0.099 0.695 0.33 1.25 0.694 1.667 0.362 0.423 0.792 0.718 1.291 0.884v0c0.498 0.166 0.974 0.185 1.426 0.056 0.444-0.125 0.924-0.472 1.438-1.041 0.507-0.571 1.115-1.443 1.823-2.616v0c0.929-1.531 1.83-2.743 2.705-3.637 0.883-0.899 1.794-1.483 2.732-1.752 0.93-0.265 1.941-0.214 3.034 0.151v0c1.171 0.391 2.098 1.061 2.781 2.008 0.689 0.95 1.092 2.091 1.208 3.424 0.107 1.337-0.104 2.795-0.631 4.374v0c-0.595 1.779-1.415 3.18-2.463 4.204-1.045 1.017-2.174 1.675-3.389 1.974-1.208 0.301-2.372 0.265-3.49-0.109v0l1.164-3.484c0.966 0.251 1.806 0.222 2.52-0.085 0.721-0.306 1.316-0.775 1.787-1.409 0.479-0.638 0.838-1.313 1.076-2.025v0c0.316-0.944 0.454-1.779 0.416-2.504-0.045-0.727-0.232-1.329-0.562-1.805-0.33-0.477-0.776-0.809-1.338-0.998z" fill="#0c0a0f" data-fill-palette-color="primary"></path><path d="M62.796 23.389l1.631 2.242-9.324 6.783-1.631-2.242zM53.562 23.705l2.978-2.167 12.472 17.142c0.429 0.59 0.841 0.97 1.234 1.139 0.399 0.165 0.776 0.191 1.13 0.076 0.359-0.109 0.704-0.284 1.035-0.525v0c0.243-0.177 0.483-0.385 0.722-0.626 0.238-0.241 0.409-0.424 0.511-0.55v0l1.744 2.363c-0.179 0.24-0.433 0.535-0.762 0.883-0.327 0.339-0.755 0.701-1.284 1.086v0c-0.723 0.526-1.487 0.867-2.293 1.023-0.815 0.155-1.649 0.023-2.501-0.394-0.854-0.408-1.696-1.183-2.526-2.325v0z" fill="#0c0a0f" data-fill-palette-color="primary"></path><path d="M129.309 11.493l-0.011-0.46c-0.046-2.053 0.304-3.903 1.052-5.55 0.754-1.641 1.84-2.955 3.257-3.942 1.424-0.98 3.125-1.493 5.103-1.538v0c2.005-0.045 3.748 0.39 5.228 1.305 1.474 0.922 2.621 2.185 3.442 3.79 0.814 1.612 1.244 3.445 1.291 5.497v0l0.01 0.461c0.046 2.046-0.301 3.892-1.041 5.539-0.747 1.654-1.833 2.968-3.258 3.942-1.431 0.974-3.142 1.483-5.133 1.528v0c-1.991 0.045-3.724-0.387-5.197-1.295-1.467-0.908-2.614-2.172-3.443-3.79-0.821-1.612-1.255-3.441-1.3-5.487zM132.981 10.95l0.01 0.46c0.032 1.398 0.282 2.688 0.753 3.872 0.47 1.183 1.157 2.126 2.059 2.829 0.903 0.703 2.029 1.039 3.379 1.008v0c1.337-0.03 2.44-0.417 3.31-1.159 0.87-0.743 1.513-1.716 1.93-2.919 0.423-1.203 0.619-2.504 0.587-3.902v0l-0.01-0.461c-0.032-1.398-0.286-2.688-0.763-3.871-0.47-1.183-1.16-2.13-2.07-2.84-0.91-0.709-2.04-1.049-3.39-1.018v0c-1.323 0.03-2.423 0.42-3.299 1.169-0.877 0.75-1.52 1.726-1.93 2.93-0.409 1.203-0.598 2.504-0.566 3.902z" fill="#0c0a0f" data-fill-palette-color="primary"></path><path d="M217.906 27.921l-10.12 14.82-3.042-2.077 12.006-17.583 2.958 2.019zM225.331 28.804l-1.898 2.779c-0.221-0.233-0.438-0.435-0.652-0.606-0.208-0.167-0.453-0.347-0.735-0.538v0c-0.924-0.631-1.83-0.973-2.718-1.027-0.898-0.052-1.746 0.138-2.544 0.568-0.803 0.426-1.539 1.039-2.208 1.837v0l-1.196-0.098c0.969-1.419 2.045-2.589 3.225-3.509 1.183-0.91 2.42-1.445 3.71-1.605 1.29-0.16 2.569 0.193 3.836 1.059v0c0.208 0.142 0.441 0.334 0.698 0.575 0.253 0.247 0.413 0.435 0.482 0.565z" fill="#0c0a0f" data-fill-palette-color="primary"></path><path d="M251.137 100.944v-0.001c-0.694-1.86-0.883-3.627-0.569-5.302 0.318-1.684 1.062-3.173 2.231-4.468 1.169-1.295 2.687-2.291 4.554-2.987v0l0.795-0.297c2.16-0.806 4.162-1.079 6.006-0.82 1.835 0.255 3.404 0.9 4.707 1.935 1.303 1.035 2.232 2.294 2.785 3.777v0c0.715 1.917 0.874 3.641 0.477 5.173-0.406 1.527-1.236 2.853-2.492 3.976-1.258 1.117-2.813 2.021-4.667 2.712v0l-1.534 0.572-5.556-14.897 2.771-1.033 4.272 11.455 0.259-0.096c0.863-0.38 1.659-0.881 2.388-1.502 0.729-0.621 1.239-1.372 1.53-2.252 0.297-0.882 0.227-1.908-0.209-3.078v0c-0.384-1.029-1.017-1.83-1.901-2.403-0.877-0.576-1.955-0.88-3.234-0.913-1.281-0.039-2.721 0.239-4.318 0.836v0l-0.796 0.296c-1.265 0.472-2.328 1.137-3.186 1.997-0.868 0.855-1.447 1.839-1.738 2.952-0.289 1.12-0.204 2.293 0.253 3.52v0c0.448 1.201 1.074 2.129 1.879 2.783 0.804 0.654 1.735 1.14 2.793 1.458v0l-0.853 2.688c-1.216-0.274-2.443-0.861-3.682-1.761-1.241-0.906-2.229-2.346-2.965-4.32z" fill="#0c0a0f" data-fill-palette-color="primary"></path><path d="M8.129 140.39c0-1.675 1.358-3.033 3.034-3.033 1.675 0 3.033 1.358 3.033 3.033 0 1.675-1.358 3.033-3.033 3.033-1.675 0-3.033-1.358-3.034-3.033z" fill="#0c0a0f" data-fill-palette-color="primary"></path><path d="M265.959 140.39c0-1.675 1.358-3.033 3.033-3.033 1.675 0 3.033 1.358 3.033 3.033 0 1.675-1.358 3.033-3.033 3.033-1.675 0-3.033-1.358-3.033-3.033z" fill="#0c0a0f" data-fill-palette-color="primary"></path></g><g id="text-1"><path d="M15.364 188.649v0c0.46-0.151 0.855-0.392 1.184-0.723 0.336-0.333 0.566-0.857 0.689-1.573 0.13-0.718 0.118-1.737-0.035-3.057v0c-0.168-1.474-0.194-2.787-0.078-3.938 0.108-1.156 0.42-2.12 0.935-2.892 0.508-0.77 1.277-1.324 2.307-1.663v0c0.985-0.324 1.981-0.339 2.99-0.045 1.01 0.3 1.94 0.888 2.788 1.765 0.842 0.879 1.492 2.015 1.949 3.409v0c0.492 1.497 0.65 2.863 0.475 4.098-0.173 1.242-0.608 2.289-1.305 3.142-0.696 0.853-1.579 1.456-2.647 1.807v0l-1.061-3.227c0.771-0.253 1.393-0.831 1.865-1.732 0.472-0.902 0.501-1.981 0.088-3.239v0c-0.287-0.875-0.657-1.54-1.108-1.994-0.453-0.461-0.931-0.746-1.433-0.854-0.502-0.108-0.983-0.086-1.443 0.065v0c-0.46 0.151-0.821 0.396-1.084 0.733-0.267 0.346-0.432 0.871-0.495 1.574-0.057 0.701-0.025 1.681 0.094 2.941v0c0.155 1.651 0.154 3.047-0.001 4.19-0.16 1.151-0.51 2.085-1.051 2.801-0.549 0.712-1.328 1.234-2.339 1.566v0c-1.082 0.356-2.139 0.373-3.171 0.051-1.032-0.321-1.959-0.947-2.781-1.875-0.822-0.929-1.474-2.125-1.955-3.59v0c-0.541-1.646-0.704-3.136-0.489-4.47 0.215-1.334 0.689-2.448 1.421-3.343 0.735-0.888 1.621-1.502 2.658-1.843v0l1.06 3.227c-0.856 0.346-1.465 0.83-1.827 1.452-0.363 0.622-0.546 1.299-0.549 2.032-0.001 0.74 0.106 1.437 0.321 2.092v0c0.287 0.875 0.645 1.569 1.072 2.081 0.436 0.517 0.908 0.861 1.416 1.032 0.508 0.17 1.022 0.17 1.54 0z" fill="#0c0a0f" data-fill-palette-color="primary"></path><path d="M74.258 240.447l-1.51 2.065-8.598-6.285 1.509-2.065zM71.375 232.409l2.743 2.005-11.555 15.809c-0.398 0.545-0.616 1.016-0.652 1.412-0.031 0.4 0.054 0.741 0.254 1.022 0.2 0.281 0.451 0.533 0.754 0.754v0c0.226 0.165 0.477 0.319 0.753 0.462 0.276 0.143 0.487 0.242 0.632 0.297v0l-1.592 2.195c-0.263-0.091-0.592-0.23-0.987-0.418-0.395-0.187-0.838-0.46-1.328-0.818v0c-0.666-0.487-1.181-1.066-1.544-1.737-0.363-0.671-0.485-1.44-0.366-2.308 0.124-0.864 0.573-1.824 1.345-2.881v0z" fill="#0c0a0f" data-fill-palette-color="primary"></path><path d="M130.11 269.828l0.009-0.42c0.04-1.903 0.44-3.596 1.2-5.081 0.761-1.485 1.815-2.654 3.164-3.506 1.355-0.852 2.946-1.259 4.774-1.221v0c1.855 0.039 3.445 0.512 4.769 1.42 1.325 0.908 2.333 2.119 3.026 3.634 0.692 1.515 1.018 3.224 0.978 5.127v0l-0.009 0.419c-0.039 1.889-0.436 3.579-1.19 5.072-0.754 1.499-1.809 2.671-3.164 3.516-1.362 0.845-2.963 1.248-4.804 1.209v0c-1.841-0.038-3.421-0.508-4.74-1.408-1.318-0.901-2.327-2.116-3.025-3.645-0.698-1.522-1.028-3.228-0.988-5.116zM133.525 269.479l-0.009 0.42c-0.027 1.296 0.153 2.5 0.539 3.613 0.393 1.113 0.988 2.009 1.786 2.687 0.804 0.685 1.831 1.041 3.079 1.067v0c1.241 0.026 2.278-0.287 3.11-0.938 0.832-0.644 1.464-1.515 1.896-2.611 0.432-1.096 0.662-2.292 0.689-3.588v0l0.008-0.419c0.027-1.296-0.153-2.5-0.538-3.613-0.386-1.106-0.985-2.006-1.797-2.698-0.811-0.692-1.841-1.051-3.088-1.078v0c-1.227-0.026-2.257 0.291-3.09 0.949-0.839 0.658-1.475 1.532-1.907 2.621-0.425 1.096-0.651 2.292-0.678 3.588z" fill="#0c0a0f" data-fill-palette-color="primary"></path><path d="M210.354 241.024l9.406 13.647-2.796 1.928-11.16-16.191 2.721-1.875zM213.583 234.91l1.765 2.561c-0.276 0.116-0.521 0.235-0.735 0.357-0.219 0.126-0.458 0.279-0.717 0.457v0c-0.848 0.585-1.442 1.255-1.782 2.011-0.344 0.751-0.465 1.543-0.364 2.376 0.102 0.833 0.386 1.672 0.854 2.518v0l-0.484 0.992c-0.902-1.309-1.55-2.622-1.946-3.94-0.399-1.324-0.451-2.572-0.157-3.744 0.292-1.162 1.022-2.146 2.191-2.951v0c0.191-0.132 0.434-0.266 0.728-0.403 0.295-0.137 0.51-0.215 0.647-0.234z" fill="#0c0a0f" data-fill-palette-color="primary"></path><path d="M271.355 186.466v0c-0.626 1.718-1.554 3.071-2.786 4.059-1.231 0.989-2.647 1.587-4.247 1.796-1.603 0.215-3.269 0.007-5-0.624v0l-0.73-0.266c-2.006-0.731-3.577-1.739-4.713-3.024-1.136-1.285-1.854-2.683-2.154-4.192-0.293-1.508-0.188-2.95 0.314-4.329v0c0.647-1.775 1.568-3.08 2.765-3.914 1.203-0.832 2.58-1.263 4.13-1.294 1.559-0.035 3.197 0.261 4.915 0.887v0l1.413 0.515-5.029 13.804-2.557-0.932 3.866-10.612-0.24-0.088c-0.837-0.254-1.698-0.379-2.585-0.376-0.878-0.001-1.685 0.221-2.42 0.665-0.741 0.441-1.308 1.2-1.701 2.277v0c-0.35 0.961-0.386 1.906-0.107 2.836 0.27 0.933 0.845 1.796 1.725 2.588 0.882 0.786 2.064 1.449 3.544 1.988v0l0.73 0.266c1.173 0.427 2.318 0.601 3.436 0.522 1.126-0.083 2.123-0.428 2.99-1.034 0.876-0.61 1.521-1.486 1.937-2.626v0c0.406-1.115 0.523-2.143 0.351-3.085-0.173-0.941-0.535-1.839-1.088-2.694v0l2.204-1.386c0.695 0.921 1.209 2.07 1.542 3.448 0.331 1.384 0.162 2.992-0.505 4.825z" fill="#0c0a0f" data-fill-palette-color="primary"></path></g></svg></g></svg></g></svg></g></svg></g><defs></defs></svg><rect width="280" height="280" fill="none" stroke="none" visibility="hidden"></rect></g></svg></g></svg>